<svg xmlns="http://www.w3.org/2000/svg" width="357" height="413" viewBox="0 0 357 413">
  <g id="그룹_44" data-name="그룹 44" transform="translate(-3521 1995)">
    <g id="그룹_43" data-name="그룹 43" transform="translate(3512 -2732)">
      <path id="패스_24" data-name="패스 24" d="M7,0H350c3.866,0,7,2.658,7,5.936V407.064c-.016.024,0,5.936,0,5.936H0V5.936C0,2.658,3.134,0,7,0Z" transform="translate(9 737)" fill="#fff"/>
      <g id="사각형_26" data-name="사각형 26" transform="translate(48 1149)" fill="#fff" stroke="#e4e4e4" stroke-width="1">
        <rect width="280" height="1" stroke="none"/>
        <rect x="0.5" y="0.5" width="279" fill="none"/>
      </g>
      <g id="그룹_13" data-name="그룹 13" transform="translate(115 886)">
        <path id="패스_17" data-name="패스 17" d="M93.606,65.217a30.838,30.838,0,0,1,17.507-8.911s1.025.079-1.262-2.445S83.513,27.522,83.513,27.522L49.366,61.747,38.878,51.18,17.428,72.314V85.089l67.267-.079S85.484,73.34,93.606,65.217ZM85.562,93.843H10.252a1.577,1.577,0,0,1-1.577-1.577V9.621a1.577,1.577,0,0,1,1.577-1.577H118.289a1.577,1.577,0,0,1,1.577,1.577V55.832s6.7.867,7.878,2.208V9.428A9.427,9.427,0,0,0,118.317,0H9.428A9.428,9.428,0,0,0,0,9.428v83.12a9.428,9.428,0,0,0,9.428,9.428h79.21C86.666,100.95,85.562,93.843,85.562,93.843ZM118.01,61.23a26.734,26.734,0,1,0,26.735,26.734A26.734,26.734,0,0,0,118.01,61.23Zm0,45.9a19.164,19.164,0,1,1,19.163-19.163A19.164,19.164,0,0,1,118.012,107.127Zm4.063-23V74.049H114.5V84.123H104.429v7.571H114.5v10.072h7.571V91.694h10.072v-7.57ZM29.967,42.347A12.617,12.617,0,1,0,17.349,29.73,12.617,12.617,0,0,0,29.967,42.347Z" fill="#7b99b6" fill-rule="evenodd"/>
      </g>
    </g>
  </g>
</svg>
